<svg width="18" height="18" viewBox="0 0 18 18" fill="none" xmlns="http://www.w3.org/2000/svg">
<path d="M1.125 4.56689H3.18573L3.803 7.31653L5.13521 13.2495H14.7469L16.3343 7.87281" stroke="#454956" stroke-width="1.3" stroke-linecap="round" stroke-linejoin="round"/>
<path d="M6.94436 16.5C7.50644 16.5 7.96209 16.0444 7.96209 15.4823C7.96209 14.9202 7.50644 14.4646 6.94436 14.4646C6.38229 14.4646 5.92664 14.9202 5.92664 15.4823C5.92664 16.0444 6.38229 16.5 6.94436 16.5Z" fill="#454956"/>
<path d="M13.3427 16.5C13.9048 16.5 14.3604 16.0444 14.3604 15.4823C14.3604 14.9202 13.9048 14.4646 13.3427 14.4646C12.7806 14.4646 12.325 14.9202 12.325 15.4823C12.325 16.0444 12.7806 16.5 13.3427 16.5Z" fill="#454956"/>
<path d="M10.162 3V8.97255" stroke="#454956" stroke-width="1.5" stroke-linecap="round"/>
<path d="M13.1483 5.98631H7.17544" stroke="#454956" stroke-width="1.5" stroke-linecap="round"/>
</svg>
