<svg width="41" height="26" viewBox="0 0 41 26" fill="none" xmlns="http://www.w3.org/2000/svg">
<g clip-path="url(#clip0_7895_31558)">
<g clip-path="url(#clip1_7895_31558)">
<path d="M36.9796 20.5352H4.02041C2.35411 20.5352 1 19.1811 1 17.5109V8.02041C1 6.35411 2.35411 5 4.02041 5H36.9796C38.6498 5 40 6.35411 40 8.02041V17.5109C40 19.1811 38.6459 20.5352 36.9796 20.5352Z" fill="url(#paint0_linear_7895_31558)"/>
<path d="M34.7513 9.92871L32.6675 17.8934L32.6597 17.909H34.2869L36.3786 9.92871H34.7513Z" fill="#292929"/>
<path d="M8.94121 14.4593C8.72658 14.5725 8.4339 14.6388 8.15684 14.6388C7.57149 14.6388 7.23979 14.5451 7.20467 14.073V14.0417C7.20467 14.0222 7.20076 14.0027 7.20076 13.9832V12.6096L7.20467 12.4457V11.474H7.20076V11.0603L7.20467 10.8964V9.95989L5.75299 10.1511C6.73638 9.95989 7.29832 9.18332 7.29832 8.41066V7.93457H5.66714V10.1628L5.57349 10.1901V14.3188C5.62812 15.4778 6.39298 16.1685 7.64563 16.1685C8.0905 16.1685 8.57829 16.0671 8.95291 15.8993L8.96072 15.8954V14.4476L8.94121 14.4593Z" fill="#292929"/>
<path d="M9.19878 9.62817L4.62134 10.3345V11.4935L9.19878 10.7872V9.62817Z" fill="#292929"/>
<path d="M9.19878 11.3257L4.62134 12.032V13.1403L9.19878 12.4339V11.3257Z" fill="#292929"/>
<path d="M14.3303 11.8603C14.264 10.5725 13.4601 9.80762 12.1489 9.80762C11.3958 9.80762 10.7714 10.1003 10.3499 10.6505C9.92849 11.2008 9.70605 12.0085 9.70605 12.988C9.70605 13.9675 9.92849 14.7792 10.3499 15.3255C10.7714 15.8758 11.3958 16.1684 12.1489 16.1684C13.4601 16.1684 14.2679 15.3997 14.3303 14.1041V16.0475H15.9615V9.9403L14.3303 10.19M14.4162 12.988C14.4162 14.1314 13.8152 14.869 12.8904 14.869C11.9343 14.869 11.3645 14.1665 11.3645 12.988C11.3645 11.8056 11.9343 11.0954 12.8904 11.0954C13.3547 11.0954 13.745 11.2749 14.0142 11.6183C14.2757 11.9578 14.4162 12.43 14.4162 12.988Z" fill="#292929"/>
<path d="M20.7185 9.80768C19.4034 9.80768 18.5995 10.5725 18.5371 11.8642V8.16479L16.9059 8.41454V16.0475H18.5371V14.1042C18.5995 15.3997 19.4073 16.1685 20.7185 16.1685C22.256 16.1685 23.173 14.9783 23.173 12.9881C23.173 10.9979 22.256 9.80768 20.7185 9.80768ZM19.977 14.869C19.0483 14.869 18.4512 14.1315 18.4512 12.9881C18.4512 12.4301 18.5917 11.9579 18.8532 11.6223C19.1224 11.2789 19.5126 11.0994 19.977 11.0994C20.9331 11.0994 21.5028 11.8057 21.5028 12.992C21.5028 14.1666 20.9331 14.869 19.977 14.869Z" fill="#292929"/>
<path d="M27.61 9.80768C26.2949 9.80768 25.491 10.5725 25.4285 11.8642V8.16479L23.7974 8.41454V16.0475H25.4285V14.1042C25.491 15.3997 26.2988 16.1685 27.61 16.1685C29.1475 16.1685 30.0645 14.9783 30.0645 12.9881C30.0645 10.9979 29.1475 9.80768 27.61 9.80768ZM26.8724 14.869C25.9437 14.869 25.3466 14.1315 25.3466 12.9881C25.3466 12.4301 25.4871 11.9579 25.7485 11.6223C26.0178 11.2789 26.408 11.0994 26.8724 11.0994C27.8285 11.0994 28.3982 11.8057 28.3982 12.992C28.3982 14.1666 27.8285 14.869 26.8724 14.869Z" fill="#292929"/>
<path d="M30.0685 9.92871H31.8089L33.2255 16.0398H31.6645L30.0685 9.92871Z" fill="#292929"/>
</g>
</g>
<defs>
<linearGradient id="paint0_linear_7895_31558" x1="1" y1="12.767" x2="40.0004" y2="12.767" gradientUnits="userSpaceOnUse">
<stop stop-color="#3BFF9D"/>
<stop offset="1" stop-color="#3BFFC8"/>
</linearGradient>
<clipPath id="clip0_7895_31558">
<rect width="41" height="26" fill="white"/>
</clipPath>
<clipPath id="clip1_7895_31558">
<rect width="39" height="15.5352" fill="white" transform="translate(1 5)"/>
</clipPath>
</defs>
</svg>
